{"title":"Prince of Persia The Sands of Time TS XVID.[V2.AUDIO].FEEL-FREE","uid":5601109,"size":1043139331,"categoryP":"video","categoryS":"movies","magnet":"?xt=urn:btih:5b05fe524a51c65e3d0a61cdc235de301deff5cf&amp;dn=Prince+of+Persia+The+Sands+of+Time+TS+XVID.%5BV2.AUDIO%5D.FEEL-FREE&amp;tr=udp%3A%2F%2Ftracker.openbittorrent.com%3A80&amp;tr=udp%3A%2F%2Fopen.demonii.com%3A1337&amp;tr=udp%3A%2F%2Ftracker.coppersurfer.tk%3A6969&amp;tr=udp%3A%2F%2Fexodus.desync.com%3A6969","seeders":0,"leechers":0,"uploader":"neon","files":11,"time":1275318599,"description":"FEEL-FREE TEAM\n\n &lt;a href=&quot;\nhttp://img268.imageshack.us/img268/5954/2lvy5gw.png&quot; rel=&quot;nofollow&quot; target=&quot;_NEW&quot;&gt;\nhttp://img268.imageshack.us/img268/5954/2lvy5gw.png&lt;/a&gt; &lt;a href=&quot;\nhttp://img338.imageshack.us/img338/5030/20lhkw.png&quot; rel=&quot;nofollow&quot; target=&quot;_NEW&quot;&gt;\nhttp://img338.imageshack.us/img338/5030/20lhkw.png&lt;/a&gt; &lt;a href=&quot;\nhttp://img297.imageshack.us/img297/9623/24c8axt.png&quot; rel=&quot;nofollow&quot; target=&quot;_NEW&quot;&gt;\nhttp://img297.imageshack.us/img297/9623/24c8axt.png&lt;/a&gt; &lt;a href=&quot;\nhttp://img441.imageshack.us/img441/1784/ff8ghl.png&quot; rel=&quot;nofollow&quot; target=&quot;_NEW&quot;&gt;\nhttp://img441.imageshack.us/img441/1784/ff8ghl.png&lt;/a&gt;\n.............................................\nIMDB:http://www.imdb.com/title/tt0473075/\nRelease Date:Action | Adventure | Fantasy | Romance\nAudio:IMAGiNE.V2.Thanks\nSource Video:Relizlab.Thanks\nSubtitles: ROMANA\nLanguage:English\n.............................................\nGeneral\nComplete name : Prince of Persia The Sands of Time TS XVID.[V2.AUDIO].FEEL-FREE\nFormat : AVI\nFormat/Info : Audio Video Interleave\nFile size : 993 MiB\nDuration : 1h 43mn\nOverall bit rate : 1 336 Kbps\n..............................................\nVideo\nID : 0\nFormat : MPEG-4 Visual\nCodec ID : DIV3\nCodec ID/Hint : DivX 3 Low\nDuration : 1h 43mn\nBit rate : 1 198 Kbps\nWidth : 704 pixels\nHeight : 304 pixels\nDisplay aspect ratio : 2.35:1\nFrame rate : 25.000 fps\nResolution : 24 bits\nBits/(Pixel*Frame) : 0.224\nStream size : 891 MiB (90%)\n..............................................\nAudio\nID : 1\nFormat : AC-3\nFormat/Info : Audio Coding 3\nCodec ID : 2000\nDuration : 1h 43mn\nBit rate mode : Constant\nBit rate : 128 Kbps\nChannel(s) : 2 channels\nChannel positions : L R\nSampling rate : 48.0 KHz\nStream size : 95.2 MiB (10%)\nAlignment : Split accross interleaves\nInterleave, duration : 40 ms (1.00 video frame)\nInterleave, preload duration : 500 ms\n................................................\nPlot:\nBased on the video game, which follows an adventurous prince who teams up with a rival princess to stop an angry ruler from unleashing a sandstorm that could destroy the world.\n","torrent":{"xt":"urn:btih:5b05fe524a51c65e3d0a61cdc235de301deff5cf","amp;dn":"Prince+of+Persia+The+Sands+of+Time+TS+XVID.%5BV2.AUDIO%5D.FEEL-FREE","amp;tr":["udp%3A%2F%2Ftracker.openbittorrent.com%3A80","udp%3A%2F%2Fopen.demonii.com%3A1337","udp%3A%2F%2Ftracker.coppersurfer.tk%3A6969","udp%3A%2F%2Fexodus.desync.com%3A6969"],"infoHash":"5b05fe524a51c65e3d0a61cdc235de301deff5cf","infoHashBuffer":{"type":"Buffer","data":[91,5,254,82,74,81,198,94,61,10,97,205,194,53,222,48,29,239,245,207]},"announce":[],"urlList":[]}}